<mxfile host="app.diagrams.net" modified="2020-10-22T15:28:08.145Z" agent="5.0 (Macintosh; Intel Mac OS X 10_13_4) AppleWebKit/537.36 (KHTML, like Gecko) Chrome/86.0.4240.75 Safari/537.36" etag="CeUzTYO97vAABk7mE5sP" version="13.8.1" type="github">
  <diagram id="y-0cmg7VaYRoWeIbfK26" name="Page-1">
    <mxGraphModel dx="740" dy="548" grid="1" gridSize="10" guides="1" tooltips="1" connect="1" arrows="1" fold="1" page="1" pageScale="1" pageWidth="827" pageHeight="1169" math="0" shadow="0">
      <root>
        <mxCell id="0" />
        <mxCell id="1" parent="0" />
        <mxCell id="uTZFLyO1zt8zuTEsig---25" value="" style="group" vertex="1" connectable="0" parent="1">
          <mxGeometry x="100" y="110" width="610" height="150" as="geometry" />
        </mxCell>
        <mxCell id="uTZFLyO1zt8zuTEsig---4" value="&lt;font style=&quot;font-size: 14px&quot;&gt;&lt;span&gt;補習班端&lt;/span&gt;&lt;/font&gt;" style="ellipse;whiteSpace=wrap;html=1;shadow=1;strokeColor=#6c8ebf;strokeWidth=2;gradientDirection=west;fillColor=#dae8fc;fontStyle=1;labelBackgroundColor=none;" vertex="1" parent="uTZFLyO1zt8zuTEsig---25">
          <mxGeometry y="100" width="120" height="50" as="geometry" />
        </mxCell>
        <mxCell id="uTZFLyO1zt8zuTEsig---7" value="&lt;font style=&quot;font-size: 14px&quot;&gt;&lt;span&gt;教師端&lt;/span&gt;&lt;/font&gt;" style="ellipse;whiteSpace=wrap;html=1;shadow=1;strokeColor=#6c8ebf;strokeWidth=2;gradientDirection=west;fillColor=#dae8fc;fontStyle=1;labelBackgroundColor=none;" vertex="1" parent="uTZFLyO1zt8zuTEsig---25">
          <mxGeometry x="244" y="100" width="120" height="50" as="geometry" />
        </mxCell>
        <mxCell id="uTZFLyO1zt8zuTEsig---3" value="&lt;span&gt;&lt;font style=&quot;font-size: 14px&quot;&gt;補習班管理系統&lt;/font&gt;&lt;/span&gt;" style="rounded=1;whiteSpace=wrap;html=1;shadow=1;strokeColor=#666666;fontSize=16;strokeWidth=2;gradientDirection=west;fillColor=#f5f5f5;fontColor=#333333;fontStyle=1;labelBackgroundColor=none;" vertex="1" parent="1">
          <mxGeometry x="337" y="20" width="136" height="50" as="geometry" />
        </mxCell>
        <mxCell id="uTZFLyO1zt8zuTEsig---20" value="" style="endArrow=none;html=1;entryX=0.5;entryY=1;entryDx=0;entryDy=0;exitX=0.5;exitY=0;exitDx=0;exitDy=0;rounded=0;width=20px;strokeWidth=2;fontStyle=1;labelBackgroundColor=none;" edge="1" parent="1" source="uTZFLyO1zt8zuTEsig---4" target="uTZFLyO1zt8zuTEsig---3">
          <mxGeometry width="50" height="50" relative="1" as="geometry">
            <mxPoint x="381" y="330" as="sourcePoint" />
            <mxPoint x="431" y="280" as="targetPoint" />
            <Array as="points">
              <mxPoint x="160" y="190" />
              <mxPoint x="405" y="190" />
            </Array>
          </mxGeometry>
        </mxCell>
        <mxCell id="uTZFLyO1zt8zuTEsig---23" value="" style="endArrow=none;html=1;entryX=0.5;entryY=1;entryDx=0;entryDy=0;exitX=0.5;exitY=0;exitDx=0;exitDy=0;rounded=0;strokeWidth=2;fontStyle=1;labelBackgroundColor=none;" edge="1" parent="1" source="uTZFLyO1zt8zuTEsig---6" target="uTZFLyO1zt8zuTEsig---3">
          <mxGeometry width="50" height="50" relative="1" as="geometry">
            <mxPoint x="381" y="330" as="sourcePoint" />
            <mxPoint x="431" y="280" as="targetPoint" />
            <Array as="points">
              <mxPoint x="740" y="190" />
              <mxPoint x="405" y="190" />
            </Array>
          </mxGeometry>
        </mxCell>
        <mxCell id="uTZFLyO1zt8zuTEsig---24" value="" style="endArrow=none;html=1;entryX=0.5;entryY=1;entryDx=0;entryDy=0;exitX=0.5;exitY=0;exitDx=0;exitDy=0;strokeWidth=2;rounded=0;fontStyle=1;labelBackgroundColor=none;" edge="1" parent="1" source="uTZFLyO1zt8zuTEsig---7" target="uTZFLyO1zt8zuTEsig---3">
          <mxGeometry width="50" height="50" relative="1" as="geometry">
            <mxPoint x="381" y="330" as="sourcePoint" />
            <mxPoint x="431" y="280" as="targetPoint" />
          </mxGeometry>
        </mxCell>
        <mxCell id="uTZFLyO1zt8zuTEsig---26" value="登入" style="rounded=1;whiteSpace=wrap;html=1;shadow=1;labelBackgroundColor=none;strokeColor=#CC6600;strokeWidth=2;fillColor=#FFB366;gradientColor=#ffffff;" vertex="1" parent="1">
          <mxGeometry x="345" y="110" width="120" height="41" as="geometry" />
        </mxCell>
        <mxCell id="uTZFLyO1zt8zuTEsig---27" value="課表" style="rounded=1;whiteSpace=wrap;html=1;shadow=1;labelBackgroundColor=none;strokeColor=#CC6600;strokeWidth=2;fillColor=#FFB366;gradientColor=#ffffff;" vertex="1" parent="1">
          <mxGeometry x="345" y="280" width="120" height="40" as="geometry" />
        </mxCell>
        <mxCell id="uTZFLyO1zt8zuTEsig---6" value="&lt;font style=&quot;font-size: 14px&quot;&gt;&lt;span&gt;學生端&lt;/span&gt;&lt;/font&gt;" style="ellipse;whiteSpace=wrap;html=1;shadow=1;strokeColor=#6c8ebf;strokeWidth=2;gradientDirection=west;fillColor=#dae8fc;fontStyle=1;labelBackgroundColor=none;" vertex="1" parent="1">
          <mxGeometry x="680" y="210" width="120" height="50" as="geometry" />
        </mxCell>
        <mxCell id="uTZFLyO1zt8zuTEsig---35" value="學習進度表" style="rounded=1;whiteSpace=wrap;html=1;shadow=1;labelBackgroundColor=none;strokeColor=#CC6600;strokeWidth=2;fillColor=#FFB366;gradientColor=#ffffff;" vertex="1" parent="1">
          <mxGeometry x="680" y="420" width="120" height="40" as="geometry" />
        </mxCell>
        <mxCell id="uTZFLyO1zt8zuTEsig---36" value="作業" style="rounded=1;whiteSpace=wrap;html=1;shadow=1;labelBackgroundColor=none;strokeColor=#CC6600;strokeWidth=2;fillColor=#FFB366;gradientColor=#ffffff;" vertex="1" parent="1">
          <mxGeometry x="680" y="360" width="120" height="40" as="geometry" />
        </mxCell>
        <mxCell id="uTZFLyO1zt8zuTEsig---37" value="課表" style="rounded=1;whiteSpace=wrap;html=1;shadow=1;labelBackgroundColor=none;strokeColor=#CC6600;strokeWidth=2;fillColor=#FFB366;gradientColor=#ffffff;" vertex="1" parent="1">
          <mxGeometry x="540" y="50" width="120" height="40" as="geometry" />
        </mxCell>
        <mxCell id="uTZFLyO1zt8zuTEsig---38" value="課表" style="rounded=1;whiteSpace=wrap;html=1;shadow=1;labelBackgroundColor=none;strokeColor=#CC6600;strokeWidth=2;fillColor=#FFB366;gradientColor=#ffffff;" vertex="1" parent="1">
          <mxGeometry x="550" y="60" width="120" height="40" as="geometry" />
        </mxCell>
        <mxCell id="uTZFLyO1zt8zuTEsig---39" value="課表" style="rounded=1;whiteSpace=wrap;html=1;shadow=1;labelBackgroundColor=none;strokeColor=#CC6600;strokeWidth=2;fillColor=#FFB366;gradientColor=#ffffff;" vertex="1" parent="1">
          <mxGeometry x="560" y="70" width="120" height="40" as="geometry" />
        </mxCell>
        <mxCell id="uTZFLyO1zt8zuTEsig---40" value="課程資料" style="rounded=1;whiteSpace=wrap;html=1;shadow=1;labelBackgroundColor=none;strokeColor=#CC6600;strokeWidth=2;fillColor=#FFB366;gradientColor=#ffffff;" vertex="1" parent="1">
          <mxGeometry x="345" y="410" width="120" height="40" as="geometry" />
        </mxCell>
        <mxCell id="uTZFLyO1zt8zuTEsig---41" value="學生資料" style="rounded=1;whiteSpace=wrap;html=1;shadow=1;labelBackgroundColor=none;strokeColor=#CC6600;strokeWidth=2;fillColor=#FFB366;gradientColor=#ffffff;" vertex="1" parent="1">
          <mxGeometry x="345" y="350" width="120" height="40" as="geometry" />
        </mxCell>
        <mxCell id="uTZFLyO1zt8zuTEsig---42" value="出席" style="rounded=1;whiteSpace=wrap;html=1;shadow=1;labelBackgroundColor=none;strokeColor=#CC6600;strokeWidth=2;fillColor=#FFB366;gradientColor=#ffffff;" vertex="1" parent="1">
          <mxGeometry x="680" y="544.5" width="120" height="40" as="geometry" />
        </mxCell>
        <mxCell id="uTZFLyO1zt8zuTEsig---43" value="成績" style="rounded=1;whiteSpace=wrap;html=1;shadow=1;labelBackgroundColor=none;strokeColor=#CC6600;strokeWidth=2;fillColor=#FFB366;gradientColor=#ffffff;" vertex="1" parent="1">
          <mxGeometry x="680" y="484.5" width="120" height="40" as="geometry" />
        </mxCell>
        <mxCell id="uTZFLyO1zt8zuTEsig---44" value="課表" style="rounded=1;whiteSpace=wrap;html=1;shadow=1;labelBackgroundColor=none;strokeColor=#CC6600;strokeWidth=2;fillColor=#FFB366;gradientColor=#ffffff;" vertex="1" parent="1">
          <mxGeometry x="680" y="280" width="120" height="40" as="geometry" />
        </mxCell>
      </root>
    </mxGraphModel>
  </diagram>
</mxfile>
